<mxfile host="app.diagrams.net" agent="Mozilla/5.0 (Macintosh; Intel Mac OS X 10_15_7) AppleWebKit/537.36 (KHTML, like Gecko) Chrome/134.0.0.0 Safari/537.36" version="26.1.3">
  <diagram name="第 1 页" id="0s8fTOUbNXKaMjRtByWt">
    <mxGraphModel dx="1306" dy="844" grid="1" gridSize="10" guides="1" tooltips="1" connect="1" arrows="1" fold="1" page="1" pageScale="1" pageWidth="827" pageHeight="1169" math="0" shadow="0">
      <root>
        <mxCell id="0" />
        <mxCell id="1" parent="0" />
        <mxCell id="p15EBxIEyjeOaIERYFU2-1" value="User" style="whiteSpace=wrap;strokeWidth=2;" vertex="1" parent="1">
          <mxGeometry x="20" y="109" width="92" height="54" as="geometry" />
        </mxCell>
        <mxCell id="p15EBxIEyjeOaIERYFU2-2" value="nginx" style="whiteSpace=wrap;strokeWidth=2;" vertex="1" parent="1">
          <mxGeometry x="233" y="161" width="98" height="54" as="geometry" />
        </mxCell>
        <mxCell id="p15EBxIEyjeOaIERYFU2-3" value="api" style="whiteSpace=wrap;strokeWidth=2;" vertex="1" parent="1">
          <mxGeometry x="445" y="161" width="82" height="54" as="geometry" />
        </mxCell>
        <mxCell id="p15EBxIEyjeOaIERYFU2-4" value="db" style="whiteSpace=wrap;strokeWidth=2;" vertex="1" parent="1">
          <mxGeometry x="669" y="20" width="78" height="54" as="geometry" />
        </mxCell>
        <mxCell id="p15EBxIEyjeOaIERYFU2-5" value="redis" style="whiteSpace=wrap;strokeWidth=2;" vertex="1" parent="1">
          <mxGeometry x="888" y="234" width="95" height="54" as="geometry" />
        </mxCell>
        <mxCell id="p15EBxIEyjeOaIERYFU2-6" value="weaviate" style="whiteSpace=wrap;strokeWidth=2;" vertex="1" parent="1">
          <mxGeometry x="645" y="124" width="125" height="54" as="geometry" />
        </mxCell>
        <mxCell id="p15EBxIEyjeOaIERYFU2-7" value="worker" style="whiteSpace=wrap;strokeWidth=2;" vertex="1" parent="1">
          <mxGeometry x="653" y="271" width="110" height="54" as="geometry" />
        </mxCell>
        <mxCell id="p15EBxIEyjeOaIERYFU2-8" value="web" style="whiteSpace=wrap;strokeWidth=2;" vertex="1" parent="1">
          <mxGeometry x="21" y="213" width="90" height="54" as="geometry" />
        </mxCell>
        <mxCell id="p15EBxIEyjeOaIERYFU2-9" value="HTTP/WS" style="curved=1;startArrow=none;endArrow=block;exitX=1;exitY=0.5;entryX=0;entryY=0.07;rounded=0;" edge="1" parent="1" source="p15EBxIEyjeOaIERYFU2-1" target="p15EBxIEyjeOaIERYFU2-2">
          <mxGeometry relative="1" as="geometry">
            <Array as="points">
              <mxPoint x="173" y="136" />
            </Array>
          </mxGeometry>
        </mxCell>
        <mxCell id="p15EBxIEyjeOaIERYFU2-10" value="API 请求" style="curved=1;startArrow=none;endArrow=block;exitX=1.01;exitY=0.5;entryX=0;entryY=0.5;rounded=0;" edge="1" parent="1" source="p15EBxIEyjeOaIERYFU2-2" target="p15EBxIEyjeOaIERYFU2-3">
          <mxGeometry relative="1" as="geometry">
            <Array as="points" />
          </mxGeometry>
        </mxCell>
        <mxCell id="p15EBxIEyjeOaIERYFU2-11" value="SQL" style="curved=1;startArrow=none;endArrow=block;exitX=0.74;exitY=0;entryX=0;entryY=0.5;rounded=0;" edge="1" parent="1" source="p15EBxIEyjeOaIERYFU2-3" target="p15EBxIEyjeOaIERYFU2-4">
          <mxGeometry relative="1" as="geometry">
            <Array as="points">
              <mxPoint x="586" y="47" />
            </Array>
          </mxGeometry>
        </mxCell>
        <mxCell id="p15EBxIEyjeOaIERYFU2-12" value="Cache/Queue" style="curved=1;startArrow=none;endArrow=block;exitX=1;exitY=0.77;entryX=0;entryY=0.2;rounded=0;" edge="1" parent="1" source="p15EBxIEyjeOaIERYFU2-3" target="p15EBxIEyjeOaIERYFU2-5">
          <mxGeometry relative="1" as="geometry">
            <Array as="points">
              <mxPoint x="586" y="225" />
              <mxPoint x="829" y="225" />
            </Array>
          </mxGeometry>
        </mxCell>
        <mxCell id="p15EBxIEyjeOaIERYFU2-13" value="向量查询" style="curved=1;startArrow=none;endArrow=block;exitX=1;exitY=0.22;entryX=0;entryY=0.5;rounded=0;" edge="1" parent="1" source="p15EBxIEyjeOaIERYFU2-3" target="p15EBxIEyjeOaIERYFU2-6">
          <mxGeometry relative="1" as="geometry">
            <Array as="points">
              <mxPoint x="586" y="151" />
            </Array>
          </mxGeometry>
        </mxCell>
        <mxCell id="p15EBxIEyjeOaIERYFU2-14" value="异步任务" style="curved=1;startArrow=none;endArrow=block;exitX=0.8;exitY=1;entryX=0;entryY=0.5;rounded=0;" edge="1" parent="1" source="p15EBxIEyjeOaIERYFU2-3" target="p15EBxIEyjeOaIERYFU2-7">
          <mxGeometry relative="1" as="geometry">
            <Array as="points">
              <mxPoint x="586" y="298" />
            </Array>
          </mxGeometry>
        </mxCell>
        <mxCell id="p15EBxIEyjeOaIERYFU2-15" value="任务状态" style="curved=1;startArrow=none;endArrow=block;exitX=0.99;exitY=0.5;entryX=0;entryY=0.81;rounded=0;" edge="1" parent="1" source="p15EBxIEyjeOaIERYFU2-7" target="p15EBxIEyjeOaIERYFU2-5">
          <mxGeometry relative="1" as="geometry">
            <Array as="points">
              <mxPoint x="829" y="298" />
            </Array>
          </mxGeometry>
        </mxCell>
        <mxCell id="p15EBxIEyjeOaIERYFU2-16" value="静态资源" style="curved=1;startArrow=none;endArrow=block;exitX=1;exitY=0.5;entryX=0;entryY=0.93;rounded=0;" edge="1" parent="1" source="p15EBxIEyjeOaIERYFU2-8" target="p15EBxIEyjeOaIERYFU2-2">
          <mxGeometry relative="1" as="geometry">
            <Array as="points">
              <mxPoint x="173" y="240" />
            </Array>
          </mxGeometry>
        </mxCell>
      </root>
    </mxGraphModel>
  </diagram>
</mxfile>
